<?xml version="1.0" encoding="UTF-8"?>
<svg id="Capa_2" data-name="Capa 2" xmlns="http://www.w3.org/2000/svg" viewBox="0 0 884.06 941.65">
  <defs>
    <style>
      .cls-1 {
        stroke-width: 0px;
      }
    </style>
  </defs>
  <g id="Capa_1-2" data-name="Capa 1">
    <g>
      <g>
        <path class="cls-1" d="M195.17,637.28h9.03v29.19h-9.03v-29.19Z"/>
        <path class="cls-1" d="M219.66,650.3v16.17h-8.69v-29.19h8.69l10.92,16.17v-16.17h8.65v29.19h-8.74l-10.84-16.17Z"/>
        <path class="cls-1" d="M252.04,644.08h-8.78v-6.8h26.59v6.8h-8.74v22.39h-9.07v-22.39Z"/>
        <path class="cls-1" d="M273.08,637.28h21.76l-.04,6.68h-12.73v4.62h11v6.72h-11v4.45h13.73v6.72h-22.76l.04-29.19Z"/>
        <path class="cls-1" d="M301.22,637.28h9.07v29.19h-9.07v-29.19ZM307.52,653.11l-.21-15.83h5.8c2.58-.03,4.81.43,6.7,1.37,1.89.94,3.33,2.21,4.33,3.8.99,1.6,1.5,3.35,1.53,5.25-.03,2.07-.59,3.87-1.68,5.4-1.09,1.53-2.62,2.68-4.58,3.46l8.23,9.91h-10.37l-9.74-13.36ZM312.52,651.77c1.2-.03,2.2-.37,2.98-1.03.78-.66,1.15-1.59,1.09-2.79-.06-1.12-.46-1.97-1.2-2.56-.74-.59-1.72-.88-2.92-.88h-3.23l-.04,7.27h3.32Z"/>
        <path class="cls-1" d="M339.65,650.3v16.17h-8.69v-29.19h8.69l10.92,16.17v-16.17h8.65v29.19h-8.74l-10.84-16.17Z"/>
        <path class="cls-1" d="M373.21,637.28h12.22l9.07,29.19h-9.16l-1.76-5.63h-8.44l-1.51,5.63h-9.62l9.2-29.19ZM381.74,654.66l-2.69-8.36-2.39,8.36h5.08Z"/>
        <path class="cls-1" d="M404.77,665.27c-2.23-1.33-3.91-3.13-5.04-5.4s-1.66-4.77-1.58-7.52c.03-2.74.66-5.26,1.89-7.56,1.23-2.3,2.99-4.12,5.27-5.48,2.28-1.36,4.98-2.04,8.08-2.04,2.6,0,4.91.62,6.93,1.85,2.02,1.23,3.59,2.85,4.73,4.85,1.13,2,1.76,4.11,1.87,6.32h-8.32c-.14-1.04-.44-1.94-.9-2.71-.46-.77-1.08-1.37-1.85-1.79-.77-.42-1.67-.63-2.71-.63-1.2,0-2.26.32-3.17.97-.91.64-1.62,1.51-2.14,2.58-.52,1.08-.81,2.28-.86,3.59-.03,1.4.19,2.63.65,3.7.46,1.06,1.15,1.89,2.06,2.48.91.59,1.99.88,3.25.88.92,0,1.78-.2,2.56-.59.78-.39,1.44-.97,1.97-1.72.53-.76.88-1.64,1.05-2.65h8.36c-.22,2.13-.95,4.18-2.18,6.15-1.23,1.97-2.88,3.58-4.93,4.83-2.06,1.25-4.39,1.87-6.99,1.87-3.11,0-5.77-.67-8-2Z"/>
        <path class="cls-1" d="M432.47,637.28h9.03v29.19h-9.03v-29.19Z"/>
        <path class="cls-1" d="M453.72,665.31c-2.24-1.3-3.93-3.08-5.06-5.33-1.13-2.25-1.67-4.81-1.62-7.67.06-2.69.7-5.17,1.93-7.46,1.23-2.28,3-4.12,5.31-5.5,2.31-1.39,5.03-2.08,8.17-2.08s5.83.67,8.08,2c2.25,1.33,3.96,3.14,5.1,5.42,1.15,2.28,1.69,4.82,1.64,7.62-.06,2.83-.74,5.38-2.06,7.64-1.32,2.27-3.14,4.05-5.46,5.35-2.32,1.3-4.97,1.95-7.94,1.95-3.16,0-5.87-.65-8.11-1.95ZM465.27,658.51c.95-.66,1.69-1.53,2.23-2.62.53-1.09.83-2.28.88-3.57.03-1.34-.19-2.56-.65-3.65-.46-1.09-1.16-1.96-2.08-2.6-.92-.64-2.03-.97-3.32-.97s-2.41.33-3.36.99-1.69,1.54-2.21,2.65c-.52,1.11-.79,2.3-.82,3.59-.06,1.34.15,2.56.61,3.65.46,1.09,1.16,1.95,2.08,2.58.92.63,2.03.95,3.32.95s2.37-.33,3.32-.99Z"/>
        <path class="cls-1" d="M491.65,650.3v16.17h-8.69v-29.19h8.69l10.92,16.17v-16.17h8.65v29.19h-8.74l-10.84-16.17Z"/>
        <path class="cls-1" d="M525.21,637.28h12.22l9.07,29.19h-9.16l-1.76-5.63h-8.44l-1.51,5.63h-9.62l9.2-29.19ZM533.73,654.66l-2.69-8.36-2.39,8.36h5.08Z"/>
        <path class="cls-1" d="M551.12,637.28h9.07v21.71h13.69v7.48h-22.76v-29.19Z"/>
      </g>
      <path class="cls-1" d="M569.01,941.65c-114.39-28.19-228.43-56.3-342.47-84.41-.21-.05-.39-.21-.6-.32.32-.43.75-.4,1.14-.42,1.22-.07,2.44-.13,3.65-.16,7.88-.21,15.75-.78,23.6-1.44,7.86-.66,15.69-1.54,23.49-2.65,20.62-2.93,40.97-7.1,60.96-13.02,26.31-7.78,51.91-17.37,76.67-29.21,31.65-15.14,60.61-34.38,87.2-57.23,28.81-24.77,54.03-52.82,76.4-83.47,10.75-14.72,20.72-29.95,29.96-45.65,1.54-2.62,1.15-2.42,4.16-2.42,9.02,0,18.05-.02,27.07,0,5.21.02,10.39.52,15.56,1.05,4.04.42,8.08.83,12.13,1.24,1.05.11,2.1.23,3.15.33.8.07,1.6.11,2.49.16.33-.92.04-1.71-.09-2.47-.66-3.84-1.36-7.68-2.07-11.52-1.95-10.55-3.78-21.12-5.25-31.74-1.57-11.35-3.18-22.69-4.67-34.05-1.29-9.83-2.44-19.68-3.63-29.52-1.25-10.41-2.49-20.82-3.71-31.23-1.07-9.12-2.08-18.25-3.14-27.37-1.22-10.49-2.48-20.98-3.7-31.48-1.22-10.49-2.41-20.99-3.61-31.49-.17-1.45-.32-2.91-.45-4.36-.02-.21-.01-.53.34-.53.14,0,.31.07.42.16.24.22.45.47.65.72,6.04,7.45,12.15,14.84,17.75,22.64,20,27.87,34.62,58.36,44.31,91.24,4.18,14.21,7.35,28.64,9.61,43.28,1.15,7.47,2.02,14.98,2.68,22.51,1.09,12.4,1.53,24.83,1.3,37.27-.14,7.8-.6,15.59-1.24,23.37-.44,5.27-.93,10.52-1.54,15.77-1.43,12.2-3.63,24.27-6.65,36.18-10.27,40.57-29.16,76.71-55.93,108.79-11.43,13.7-24.02,26.27-37.33,38.14-11.05,9.85-22.29,19.46-34.2,28.27-14.66,10.85-29.95,20.69-45.93,29.48-.9.49-2.25.68-2.49,1.74-.21.92.8,1.71,1.32,2.52,10.37,16.14,20.76,32.27,31.13,48.41.52.81,1.18,1.55,1.51,2.88Z"/>
      <path class="cls-1" d="M325.81,235c.73-.83,1.45-1.05,2.1-1.37,18.5-9.33,37.8-16.57,57.81-21.94,9.11-2.45,18.29-4.58,27.54-6.44,9.48-1.91,19.01-3.53,28.61-4.77,6.53-.84,13.07-1.58,19.62-2.2,3.15-.3,6.32-.45,9.48-.64,4.46-.28,8.92-.54,13.38-.8.89-.05,1.79-.08,2.68-.08,7.48-.02,14.96-.08,22.44-.03,6.01.04,12.02.38,18.01.83,3.16.24,6.33.37,9.48.63,3.81.31,7.61.65,11.4,1.08,4.52.52,9.03,1.14,13.54,1.75,10.15,1.38,20.24,3.15,30.22,5.46,19.49,4.51,38.83,9.58,57.77,16.08,12.48,4.28,24.6,9.4,36.26,15.58,13.04,6.91,25.3,15.01,36.8,24.26,8.44,6.79,16.41,14.09,23.81,21.98,8.24,8.78,15.84,18.1,22.8,27.94,9.36,13.25,17.45,27.24,24.44,41.86,7.34,15.36,13.37,31.22,18.31,47.52,3.54,11.68,6.42,23.52,8.82,35.49.45,2.23.83,4.48,1.24,6.71.09.48.16.97.3,1.43.24.8.66,1.07,1.45.93.72-.13,1.43-.32,2.14-.5,18.05-4.56,36.09-9.13,54.14-13.69.94-.24,1.9-.45,2.85-.62.56-.1.98.41.77.9-.29.67-.6,1.33-.97,1.97-5.21,9.1-10.43,18.2-15.64,27.3-5.58,9.73-11.14,19.47-16.72,29.21-6.71,11.71-13.42,23.42-20.12,35.13-5.49,9.59-10.98,19.19-16.47,28.79-6.58,11.5-13.17,23-19.75,34.5-5.57,9.73-11.15,19.47-16.72,29.2-5.53,9.67-11.05,19.34-16.58,29.01-4.84,8.47-9.7,16.93-14.55,25.39-.52.9-1.07,1.79-1.57,2.61-.67-.09-.58-.49-.58-.78,0-.89-.03-1.8.08-2.68.42-3.24.28-6.5.5-9.74.7-10.4.43-20.8.3-31.2-.06-5.11-.49-10.22-.78-15.33-.16-2.84-.34-5.68-.59-8.51-.39-4.45-.85-8.89-1.29-13.34-.53-5.34-1.3-10.65-2.08-15.95-1.29-8.77-2.89-17.48-4.74-26.15-3.16-14.8-7.12-29.39-11.86-43.76-3.93-11.89-8.39-23.59-13.4-35.07-3.02-6.93-6.23-13.78-9.6-20.54-4.8-9.61-10.19-18.88-16.06-27.88-9.47-14.52-19.71-28.47-30.65-41.91-5.33-6.56-10.87-12.95-16.5-19.25-8.62-9.65-17.72-18.82-27.03-27.79-5.62-5.41-11.46-10.59-17.39-15.67-7.47-6.4-15.13-12.58-23.02-18.45-13.51-10.06-27.56-19.31-42.24-27.58-17.25-9.72-35.14-18.03-53.75-24.78-14.7-5.33-29.73-9.48-45.1-12.37-7.67-1.44-15.36-2.77-23.1-3.76-5.8-.74-11.62-1.29-17.46-1.73-8.05-.6-16.09-.42-24.13-.28-3.57.06-7.13.45-10.69.76-3.48.3-6.95.67-10.43,1.02-5.1.51-10.14,1.42-15.18,2.28-.7.12-1.4.35-2.34.02Z"/>
      <path class="cls-1" d="M554.69,0c.16.05.36.06.45.16,62.86,72.03,125.7,144.07,188.54,216.11.09.1.05.3.08.49-.67.21-1.26-.13-1.86-.31-15.88-4.75-31.9-8.99-48.04-12.73-13.14-3.04-26.35-5.74-39.63-8.09-8.72-1.54-17.46-2.95-26.23-4.19-8.53-1.2-17.08-2.24-25.64-3.15-8.16-.86-16.34-1.6-24.52-2.19-6.73-.48-13.47-.8-20.21-1.14-11.29-.58-22.59-.67-33.89-.65-10.33.02-20.65.25-30.96.76-9.5.47-18.99,1.09-28.46,1.98-13.76,1.28-27.46,2.96-41.11,5.16-21.12,3.4-41.97,7.97-62.49,14.02-25.35,7.47-49.52,17.79-72.83,30.17-24.69,13.12-47.94,28.42-69.72,45.96-3.55,2.86-6.88,5.96-10.11,9.18-9.17,9.13-17.74,18.8-26.2,28.57-7.93,9.16-15.79,18.38-23.68,27.56-1.22,1.42-2.47,2.81-3.72,4.2-.2.23-.37.55-.87.48-.25-.7.07-1.37.25-2.04,1.6-6.06,3.61-11.98,5.8-17.84,5.58-14.93,12.15-29.44,19.2-43.73,11.73-23.79,24.63-46.91,39.09-69.16,12.05-18.53,25.68-35.78,41.25-51.49,20.09-20.27,42.56-37.45,67.2-51.82,24.75-14.43,50.91-25.63,78.24-34.17,18.01-5.63,36.32-10.02,54.91-13.31,9.53-1.68,19.09-3.1,28.7-4.19,8.48-.96,16.98-1.71,25.5-2.15,9.99-.52,19.98-.89,29.98-.55.32.01.65.02.98,0,.81-.04,1.03-.18,1.17-.95.28-1.6.53-3.21.75-4.82,1.05-7.57,2.08-15.13,3.13-22.7,1.05-7.57,2.11-15.13,3.17-22.69.41-2.98.81-5.96,1.23-8.94.09-.63.02-1.32.58-1.8Z"/>
      <path class="cls-1" d="M5.06,430.31c.46,1.22.81,2.12,1.14,3.02,16.7,46.35,38.74,89.98,66.51,130.69,6.55,9.61,13.38,19.01,20.58,28.15,1.09,1.38,1.48,2.75,1.46,4.46-.09,7.4-.09,14.8-.13,22.19,0,.33-.02.65,0,.98.05,1.16.25,1.39,1.48,1.41,2.03.04,4.06.02,6.1.02,4.47,0,8.94.04,13.41-.02,1.34-.02,2.26.41,3.17,1.4,5.1,5.58,10.19,11.17,15.41,16.64,20.46,21.47,42.39,41.29,66.35,58.82,18.28,13.37,37.51,25.17,58.03,34.83,20.77,9.78,42.4,16.84,64.97,21.05,9.59,1.79,19.24,3.17,28.95,4.15,11.66,1.17,23.36,1.55,35.07,1.26,3.82-.09,7.64-.12,11.46-.18,9.11-.15,18.2-.65,27.26-1.54,13.7-1.35,27.18-3.85,40.28-8.21,11.3-3.76,22.03-8.78,32.29-14.81.67-.39,1.37-.75,2.13-1.17.05.87-.53,1.13-.9,1.5-14.33,14.79-30.2,27.65-47.8,38.37-16.93,10.31-34.82,18.6-53.43,25.35-15.06,5.46-30.37,10.08-46.06,13.42-8.27,1.76-16.6,3.17-24.98,4.27-14.85,1.95-29.77,2.89-44.75,2.72-8.05-.09-16.08-.52-24.1-1.24-46.06-4.14-88.93-18.36-129.17-40.86-28.25-15.8-53.95-35.05-77.37-57.38-2.65-2.53-2.05-2.59-4.45.26-13.2,15.67-26.38,31.35-39.57,47.03-.42.5-.85.99-1.29,1.46-.16.17-.38.38-.61.18-.15-.13-.27-.4-.27-.61-.04-1.95-.05-3.9-.06-5.85-.16-33.9-.31-67.81-.47-101.71-.19-39.92-.38-79.84-.57-119.75-.15-31.71-.29-63.41-.43-95.12-.02-4.47-.04-8.94-.05-13.41,0-.48-.1-.98.41-1.77Z"/>
      <path class="cls-1" d="M0,179.51c.51-.65,1.19-.73,1.79-.94,18.28-6.35,36.65-12.41,55.1-18.25,10.23-3.24,20.45-6.51,30.71-9.66,15.93-4.9,31.88-9.73,47.83-14.56,13.62-4.12,27.25-8.18,40.87-12.27,12.92-3.88,25.85-7.75,38.76-11.68,11.9-3.62,23.78-7.31,35.65-11,21.19-6.58,42.31-13.41,63.34-20.51,3.7-1.25,7.38-2.54,11.07-3.8.54-.18,1.09-.32,1.64-.45.11-.02.33.1.37.21.04.12-.01.34-.11.44-.27.3-.58.57-.89.83-5.12,4.14-10.23,8.3-15.37,12.41-9.71,7.77-19.39,15.59-28.79,23.73-10.32,8.95-20.28,18.3-29.68,28.23-11.81,12.47-22.7,25.71-32.55,39.79-7.83,11.21-14.87,22.91-21.61,34.79-6.14,10.82-11.95,21.82-17.41,33-6.24,12.79-12.12,25.74-17.62,38.87-7.76,18.53-14.76,37.35-21,56.45-1.92,5.87-3.71,11.79-5.53,17.69-.84,2.71-.81,2.74-3.71,2.74-11.14,0-22.28-.02-33.42-.03-.73,0-1.47-.02-2.19.04-1.08.08-1.48.45-1.59,1.47-.07.56-.06,1.14-.06,1.7-.03,17.07-.07,34.15-.09,51.22,0,3.06.05,3.1,3.15,3.11,6.5.02,13.01.03,19.51.06,3.36.02,3.48.21,2.93,3.5-1.27,7.62-2.44,15.25-3.22,22.93-.27,2.67-.57,5.33-.9,7.99-.15,1.25-.44,1.5-1.74,1.56-1.46.06-2.93.04-4.39.05-3.9.02-7.8.04-11.71.06-.33,0-.65,0-.98,0-2.56.06-2.69.23-2.77,2.83-.52,16.91-.22,33.82-.35,50.72,0,.81.03,1.63.11,2.43.06.53.43.89.96.95.72.08,1.46.11,2.19.11,5.12.01,10.24.01,15.37.02.73,0,1.46.02,2.19.07.73.06,1.19.48,1.35,1.2.09.39.15.8.19,1.2.96,9.31,2.38,18.54,4.32,27.69,1.01,4.77,2.17,9.51,3.29,14.26.67,2.82.65,2.89-2.25,2.9-8.05.02-16.1.02-24.15.04-.89,0-1.83-.13-2.67.1-1.22.34-1.9.01-2.63-1-6.03-8.38-11.97-16.83-17.68-25.43-6.57-9.89-12.83-19.97-18.6-30.35-5.39-9.68-9.87-19.78-13.77-30.14-5.19-13.79-9.5-27.85-12.9-42.19-2.35-9.89-4.31-19.86-5.67-29.94-.62-4.59-1.23-9.18-1.75-13.78-.32-2.82-.34-5.68-.69-8.5-.55-4.37-.39-8.77-.73-13.14-.26-3.4-.06-6.83-.14-10.24-.13-5.78.23-11.55.57-17.3,1.09-18.45,3.7-36.7,7.87-54.71,4.23-18.26,9.91-36.05,17.05-53.37,3.93-9.55,8.26-18.93,13.03-28.09.19-.36.4-.71.56-1.08.45-1.01.31-1.47-.77-1.9-2.87-1.15-5.75-2.25-8.64-3.35-16.49-6.27-32.98-12.53-49.47-18.8-.52-.2-1.11-.28-1.61-.92Z"/>
      <path class="cls-1" d="M521.62,536.07c.74-.54.98-1.35,1.36-2.05,9.82-18.35,19.32-36.86,28.56-55.5,15.49-31.24,30.35-62.78,44.6-94.6,1.07-2.39.62-2.61,3.74-2.02,3.27.62,6.58,1.03,9.92,1.13,4.33.13,8.59-.46,12.84-1.19,2.2-.38,2.25-.38,2.52,1.94.54,4.52,1.04,9.04,1.56,13.56.75,6.46,1.51,12.92,2.26,19.37.71,6.14,1.42,12.27,2.13,18.41.75,6.46,1.51,12.92,2.26,19.37.71,6.14,1.42,12.27,2.13,18.41.75,6.46,1.51,12.91,2.26,19.37.55,4.76,1.09,9.53,1.65,14.29.73,6.21,1.47,12.43,2.23,18.64.7,5.73,1.41,11.45,2.14,17.18.86,6.77,1.72,13.54,2.64,20.31.86,6.36,1.76,12.72,2.72,19.07,1.02,6.75,2.11,13.49,3.2,20.22.42,2.61.46,2.64-2.21,2.34-2.84-.32-5.68-.36-8.52-.36-10.65-.02-21.3,0-31.95.02-2.6,0-5.2.1-7.79.38-2.36.26-2.35.21-2.47-2.26-.12-2.27-.28-4.54-.4-6.82-.49-9.42-1.12-18.82-1.87-28.22-.56-6.89-1.06-13.78-1.66-20.66-.52-6.07-1.14-12.14-1.72-18.21-.54-5.66-1.08-11.33-1.63-16.99-.58-5.99-1.18-11.97-1.77-17.96-.56-5.66-1.11-11.32-1.67-16.99-.67-6.71-1.34-13.42-2.02-20.14-.02-.24-.08-.49-.19-.7-.11-.21-.37-.4-.58-.18-.27.29-.49.64-.66,1-.9,1.82-1.78,3.65-2.66,5.48-22.56,46.78-45.29,93.47-67.35,140.49-.07.15-.13.3-.2.44-.84,1.72-.71,1.89-2.93,1.55-2.98-.46-5.99-.42-8.98.1-1.25.21-1.35.17-1.9-.96-1.75-3.58-3.47-7.17-5.2-10.76-15.45-32.16-30.88-64.33-46.37-96.47-5.82-12.08-11.79-24.09-17.73-36.11-.71-1.43-1.04-2.85-1.03-4.43.09-23.33.15-46.67.21-70,0-.57.01-1.14.05-1.7.03-.45.28-.74.75-.8.24-.03.49-.05.73-.04,4.01.13,7.93-.59,11.86-1.26.32-.05.64-.11.96-.16.72-.13,1.28.05,1.58.79.15.38.34.74.51,1.11,11.53,25.65,23.81,50.95,35.93,76.32,11.88,24.86,24.24,49.48,36.74,74.04.39.77.62,1.67,1.41,2.19Z"/>
      <path class="cls-1" d="M280.17,604.54c-5.37-.09-13.74-.24-22.11-.39-.24,0-.49,0-.73-.02q-1.82-.09-1.86-2.01c0-.41,0-.81,0-1.22,0-4.06.01-8.13.03-12.19,0-.65.04-1.3.09-1.94.03-.36.29-.59.64-.6.48-.02.97,0,1.46.03,9.74.66,19.49,1,29.24.73,10.41-.29,20.51-2.23,30.05-6.54,14.68-6.63,25.65-17.24,33.24-31.38,4.42-8.23,7.26-17.02,9.19-26.13,1.64-7.72,2.57-15.54,3.07-23.42.38-6.01.5-12.02.31-18.04-.36-11.11-2.03-22-5.76-32.51-3.41-9.59-8.16-18.42-14.93-26.07-9.93-11.22-22.32-18.19-36.95-21.25-5.27-1.1-10.6-1.58-15.98-1.58-7.72,0-15.44.07-23.15.66-2.59.2-5.19.41-7.78.61-.4.03-.81.1-1.21.11-.64.02-.93-.22-1-.79-.04-.32-.05-.65-.04-.97.01-5.2.02-10.41.04-15.61,0-.4.04-.81.09-1.21.05-.35.27-.59.63-.64.48-.06.97-.09,1.45-.12,8.61-.5,17.22-.54,25.84-.57,4.96-.02,9.92-.03,14.87.12,14.57.44,29.01,2.02,43.23,5.35,9.54,2.23,18.66,5.59,27.3,10.23,16.52,8.87,28.39,21.99,35.89,39.13,3.31,7.57,5.45,15.47,6.78,23.6.51,3.13.86,6.28,1.28,9.42.02.16.05.32.05.48.1,5.35.85,10.67.76,16.04-.09,5.28-.16,10.56-.67,15.83-2.1,21.41-9.1,41.04-21.78,58.46-15.34,21.07-35.85,34.57-61.07,40.96-9.26,2.35-18.69,3.44-28.24,3.43-6.42,0-12.84,0-22.27,0Z"/>
      <path class="cls-1" d="M228.22,381.67c.28.57.04,1.04-.07,1.49-2.03,7.95-2.02,15.9-.12,23.87.08.32.15.63.23.95.37,1.61.29,1.71-1.28,1.65-13.23-.52-26.46-1.06-39.69-1.57-6.25-.24-12.5-.43-18.75-.66-7.14-.27-14.29-.62-21.43-.83-10.07-.28-20.14-.46-30.21-.69-.97-.02-1.95-.03-2.92-.07-.56-.02-.9-.35-.95-.9-.05-.48-.05-.97-.05-1.46.02-6.01.04-12.02.06-18.04,0-.24,0-.49,0-.73.06-1.54.13-1.64,1.72-1.64,6.82-.02,13.65-.03,20.47,0,20.23.07,40.46-.28,60.69-.59,9.91-.15,19.81-.57,29.72-.85.88-.03,1.77-.18,2.59.07Z"/>
      <path class="cls-1" d="M228.44,604.5c-1.04,0-1.77.01-2.49,0-36.73-.78-73.47-.48-110.2-.55-.89,0-1.79,0-2.68-.04-.57-.02-.89-.36-.93-.92-.03-.49-.04-.97-.04-1.46.02-6.01.04-12.03.06-18.04,0-.41,0-.81.03-1.22.07-.88.27-1.1,1.23-1.11,1.87-.04,3.74-.04,5.61-.03,13.41.07,26.82-.28,40.22-.63,12.27-.33,24.53-.85,36.78-1.45,9.01-.44,18-1.14,27-1.72,1.54-.1,3.08-.17,4.63-.23.62-.02.87.31.74.93-.49,2.22-1.14,4.41-1.36,6.68-.5,5.11-.59,10.22.25,15.31.24,1.43.72,2.81,1.16,4.49Z"/>
      <path class="cls-1" d="M172.36,499.84c-20.65-.49-38.6-.79-56.56-.78-3.63,0-3.24.28-3.24-3.3,0-5.44.02-10.89.04-16.33,0-.49,0-.98.02-1.46.06-1.09.24-1.31,1.25-1.38.81-.05,1.62-.05,2.44-.06,10.23-.14,20.47-.23,30.7-.43,14.38-.28,28.75-.61,43.12-.99,11.53-.3,23.06-.7,34.59-1.05.4-.01.82-.03,1.21.05.18.04.44.33.43.49-.04.56-.17,1.12-.3,1.67-.45,1.98-.93,3.95-1.38,5.93-.51,2.23-.54,4.51-.54,6.79,0,1.8.36,3.55.79,5.29.54,2.21,1.02,4.43,1.5,6.65.13.63-.16.97-.76.95-.97-.03-1.95-.12-2.92-.16-9.58-.39-19.15-.79-28.73-1.14-8.12-.3-16.24-.55-21.65-.73Z"/>
      <path class="cls-1" d="M592.55,333.27c7.36,4.83,28.06,25.39,30.83,30.55-1.17.65-2.49.67-3.75.92-2.31.45-4.64.77-7,.88-1.04.05-1.71-.29-2.09-1.26-.15-.38-.36-.73-.54-1.09-4.91-9.82-10.42-19.28-16.66-28.31-.31-.45-.78-.83-.8-1.69Z"/>
      <path class="cls-1" d="M152.15,635.82c-.96-.62-1.57-1.38-2.2-2.1-3.1-3.54-6.18-7.1-9.27-10.66-.21-.25-.43-.49-.61-.76-.35-.49-.14-1.03.45-1.05,1.46-.05,2.92-.04,4.38-.06,1.03-.01,1.65.52,2.03,1.44.81,1.95,1.64,3.89,2.47,5.83.86,2.02,1.73,4.03,2.59,6.04.15.36.34.72.15,1.31Z"/>
    </g>
  </g>
</svg>